<svg xmlns="http://www.w3.org/2000/svg" viewBox="0 0 640 480" role="img" aria-labelledby="title">
  <title id="title">Дана</title>
  <defs><linearGradient id="bg" x1="0" y1="0" x2="1" y2="1"><stop stop-color="#e8efff"/><stop offset="1" stop-color="#adc4f6"/></linearGradient></defs>
  <rect width="640" height="480" fill="url(#bg)"/>
  <circle cx="320" cy="188" r="82" fill="#eabf9f"/>
  <path d="M230 201c0-119 58-140 91-140 75 0 103 63 90 157-15-34-35-70-90-70-43 0-69 23-91 53Z" fill="#342721"/>
  <path d="M171 480c12-126 72-185 149-185s139 59 150 185H171Z" fill="#3f5686"/>
  <circle cx="292" cy="191" r="5" fill="#29352f"/><circle cx="348" cy="191" r="5" fill="#29352f"/>
  <path d="M299 230c14 10 30 10 43 0" fill="none" stroke="#9d5e54" stroke-width="5" stroke-linecap="round"/>
</svg>
